<?xml version="1.0" encoding="UTF-8"?>
<svg xmlns="http://www.w3.org/2000/svg" viewBox="0 0 540.0 260.0" font-family="-apple-system, sans-serif">
<title>Cardputer LoRa Carrier — board preview</title>
<rect x="20" y="20" width="500.0" height="220.0" fill="#1B5E20" stroke="#0D3812" stroke-width="2" rx="3"/>
<rect x="23" y="23" width="494.0" height="214.0" fill="#1565C0" opacity="0.10"/>
<polyline points="110.0,155.0 420.0,155.0" fill="none" stroke="#1976D2" stroke-width="3.0" stroke-dasharray="6 4" stroke-linecap="round" stroke-linejoin="round" opacity="0.85"/>
<polyline points="50.0,130.0 50.0,70.0 170.0,70.0 170.0,130.0" fill="none" stroke="#FFB300" stroke-width="5.0" stroke-linecap="round" stroke-linejoin="round"/>
<polyline points="220.8,130.0 220.8,50.0 440.0,50.0 440.0,88.4" fill="none" stroke="#FFB300" stroke-width="5.0" stroke-linecap="round" stroke-linejoin="round"/>
<polyline points="110.0,130.0 110.0,155.0" fill="none" stroke="#FFB300" stroke-width="3.0" stroke-linecap="round" stroke-linejoin="round"/>
<polyline points="420.0,155.0 420.0,139.2 440.0,139.2" fill="none" stroke="#FFB300" stroke-width="3.0" stroke-linecap="round" stroke-linejoin="round"/>
<polyline points="90.0,130.0 90.0,170.0 420.0,170.0 420.0,164.6 440.0,164.6" fill="none" stroke="#FFB300" stroke-width="3.0" stroke-linecap="round" stroke-linejoin="round"/>
<circle cx="110.0" cy="155.0" r="5.0" fill="#FFB300" stroke="#B58A00"/>
<circle cx="110.0" cy="155.0" r="3.0" fill="#0D3812"/>
<circle cx="420.0" cy="155.0" r="5.0" fill="#FFB300" stroke="#B58A00"/>
<circle cx="420.0" cy="155.0" r="3.0" fill="#0D3812"/>
<circle cx="50.0" cy="130.0" r="8.0" fill="#E5C100" stroke="#8A6B00"/>
<circle cx="50.0" cy="130.0" r="4.5" fill="#0D3812"/>
<circle cx="70.0" cy="130.0" r="8.0" fill="#E5C100" stroke="#8A6B00"/>
<circle cx="70.0" cy="130.0" r="4.5" fill="#0D3812"/>
<circle cx="90.0" cy="130.0" r="8.0" fill="#E5C100" stroke="#8A6B00"/>
<circle cx="90.0" cy="130.0" r="4.5" fill="#0D3812"/>
<circle cx="110.0" cy="130.0" r="8.0" fill="#E5C100" stroke="#8A6B00"/>
<circle cx="110.0" cy="130.0" r="4.5" fill="#0D3812"/>
<circle cx="170.0" cy="130.0" r="9.0" fill="#E5C100" stroke="#8A6B00"/>
<circle cx="170.0" cy="130.0" r="5.0" fill="#0D3812"/>
<circle cx="195.4" cy="130.0" r="9.0" fill="#E5C100" stroke="#8A6B00"/>
<circle cx="195.4" cy="130.0" r="5.0" fill="#0D3812"/>
<circle cx="220.8" cy="130.0" r="9.0" fill="#E5C100" stroke="#8A6B00"/>
<circle cx="220.8" cy="130.0" r="5.0" fill="#0D3812"/>
<circle cx="440.0" cy="190.0" r="9.0" fill="#E5C100" stroke="#8A6B00"/>
<circle cx="440.0" cy="190.0" r="5.0" fill="#0D3812"/>
<circle cx="440.0" cy="164.6" r="9.0" fill="#E5C100" stroke="#8A6B00"/>
<circle cx="440.0" cy="164.6" r="5.0" fill="#0D3812"/>
<circle cx="440.0" cy="139.2" r="9.0" fill="#E5C100" stroke="#8A6B00"/>
<circle cx="440.0" cy="139.2" r="5.0" fill="#0D3812"/>
<circle cx="440.0" cy="113.8" r="9.0" fill="#E5C100" stroke="#8A6B00"/>
<circle cx="440.0" cy="113.8" r="5.0" fill="#0D3812"/>
<circle cx="440.0" cy="88.4" r="9.0" fill="#E5C100" stroke="#8A6B00"/>
<circle cx="440.0" cy="88.4" r="5.0" fill="#0D3812"/>
<circle cx="485.0" cy="50.0" r="11.0" fill="#0D3812" stroke="#0D3812"/>
<text x="270.0" y="33.4" fill="white" font-size="11.2" font-weight="700" text-anchor="middle" font-family="monospace">CARDPUTER LORA CARRIER</text>
<text x="50.0" y="115.4" fill="white" font-size="8.0" font-weight="700" text-anchor="middle" font-family="monospace">5V</text>
<text x="70.0" y="115.4" fill="white" font-size="8.0" font-weight="700" text-anchor="middle" font-family="monospace">GND</text>
<text x="90.0" y="115.4" fill="white" font-size="8.0" font-weight="700" text-anchor="middle" font-family="monospace">RX</text>
<text x="110.0" y="115.4" fill="white" font-size="8.0" font-weight="700" text-anchor="middle" font-family="monospace">TX</text>
<text x="80.0" y="104.4" fill="white" font-size="8.0" font-weight="700" text-anchor="middle" font-family="monospace">J1</text>
<text x="170.0" y="115.4" fill="white" font-size="8.0" font-weight="700" text-anchor="middle" font-family="monospace">VIN</text>
<text x="195.4" y="115.4" fill="white" font-size="8.0" font-weight="700" text-anchor="middle" font-family="monospace">GND</text>
<text x="220.8" y="115.4" fill="white" font-size="8.0" font-weight="700" text-anchor="middle" font-family="monospace">VOUT</text>
<text x="195.4" y="103.4" fill="white" font-size="8.0" font-weight="700" text-anchor="middle" font-family="monospace">U1 AMS1117</text>
<text x="456.0" y="192.4" fill="white" font-size="8.0" font-weight="700" text-anchor="middle" font-family="monospace">GND</text>
<text x="456.0" y="167.0" fill="white" font-size="8.0" font-weight="700" text-anchor="middle" font-family="monospace">TX</text>
<text x="456.0" y="141.6" fill="white" font-size="8.0" font-weight="700" text-anchor="middle" font-family="monospace">RX</text>
<text x="456.0" y="116.2" fill="white" font-size="8.0" font-weight="700" text-anchor="middle" font-family="monospace">RST</text>
<text x="456.0" y="90.8" fill="white" font-size="8.0" font-weight="700" text-anchor="middle" font-family="monospace">VDD</text>
<text x="400.0" y="72.4" fill="white" font-size="8.0" font-weight="700" text-anchor="middle" font-family="monospace">J2 - RYLR998</text>
<polyline points="135.0,200.0 255.0,200.0 255.0,140.0 135.0,140.0 135.0,200.0" fill="none" stroke="white" stroke-width="1" opacity="0.7"/>
<text x="195.4" y="175.0" fill="white" font-size="10" opacity="0.5" text-anchor="middle" font-family="monospace" font-style="italic">31179 module sits here</text>
<text x="270.0" y="258.0" fill="#222" font-size="12" text-anchor="middle">50.0 × 22.0 mm</text>
</svg>