<?xml version="1.0" encoding="UTF-8"?>
<svg xmlns="http://www.w3.org/2000/svg" viewBox="0 0 540.0 260.0" font-family="-apple-system, sans-serif">
<title>Cardputer LoRa Carrier — board preview</title>
<rect x="20" y="20" width="500.0" height="220.0" fill="#1B5E20" stroke="#0D3812" stroke-width="2" rx="3"/>
<rect x="23" y="23" width="494.0" height="214.0" fill="#1565C0" opacity="0.15"/>
<polyline points="50.0,130.0 140.0,130.0" fill="none" stroke="#FFB300" stroke-width="5.0" stroke-linecap="round" stroke-linejoin="round"/>
<polyline points="140.0,130.0 140.0,75.0 223.0,75.0 223.0,110.0" fill="none" stroke="#FFB300" stroke-width="5.0" stroke-linecap="round" stroke-linejoin="round"/>
<polyline points="200.0,110.0 200.0,130.0 250.0,130.0" fill="none" stroke="#FFB300" stroke-width="5.0" stroke-linecap="round" stroke-linejoin="round"/>
<polyline points="200.0,150.0 200.0,130.0" fill="none" stroke="#FFB300" stroke-width="5.0" stroke-linecap="round" stroke-linejoin="round"/>
<polyline points="250.0,130.0 250.0,60.0 440.0,60.0 440.0,88.4" fill="none" stroke="#FFB300" stroke-width="5.0" stroke-linecap="round" stroke-linejoin="round"/>
<polyline points="177.0,110.0 150.0,110.0 150.0,100.0" fill="none" stroke="#FFB300" stroke-width="4.0" stroke-linecap="round" stroke-linejoin="round"/>
<polyline points="160.0,130.0 160.0,160.0" fill="none" stroke="#FFB300" stroke-width="4.0" stroke-linecap="round" stroke-linejoin="round"/>
<polyline points="270.0,130.0 270.0,160.0" fill="none" stroke="#FFB300" stroke-width="4.0" stroke-linecap="round" stroke-linejoin="round"/>
<polyline points="110.0,130.0 110.0,210.0 420.0,210.0 420.0,139.2 440.0,139.2" fill="none" stroke="#FFB300" stroke-width="3.0" stroke-linecap="round" stroke-linejoin="round"/>
<polyline points="90.0,130.0 90.0,45.0 420.0,45.0 420.0,164.6 440.0,164.6" fill="none" stroke="#FFB300" stroke-width="3.0" stroke-linecap="round" stroke-linejoin="round"/>
<circle cx="160.0" cy="160.0" r="5.0" fill="#FFB300" stroke="#B58A00"/>
<circle cx="160.0" cy="160.0" r="3.0" fill="#0D3812"/>
<circle cx="270.0" cy="160.0" r="5.0" fill="#FFB300" stroke="#B58A00"/>
<circle cx="270.0" cy="160.0" r="3.0" fill="#0D3812"/>
<circle cx="150.0" cy="100.0" r="5.0" fill="#FFB300" stroke="#B58A00"/>
<circle cx="150.0" cy="100.0" r="3.0" fill="#0D3812"/>
<circle cx="50.0" cy="130.0" r="8.0" fill="#E5C100" stroke="#8A6B00"/>
<circle cx="50.0" cy="130.0" r="4.5" fill="#0D3812"/>
<circle cx="70.0" cy="130.0" r="8.0" fill="#E5C100" stroke="#8A6B00"/>
<circle cx="70.0" cy="130.0" r="4.5" fill="#0D3812"/>
<circle cx="90.0" cy="130.0" r="8.0" fill="#E5C100" stroke="#8A6B00"/>
<circle cx="90.0" cy="130.0" r="4.5" fill="#0D3812"/>
<circle cx="110.0" cy="130.0" r="8.0" fill="#E5C100" stroke="#8A6B00"/>
<circle cx="110.0" cy="130.0" r="4.5" fill="#0D3812"/>
<circle cx="440.0" cy="190.0" r="9.0" fill="#E5C100" stroke="#8A6B00"/>
<circle cx="440.0" cy="190.0" r="5.0" fill="#0D3812"/>
<circle cx="440.0" cy="164.6" r="9.0" fill="#E5C100" stroke="#8A6B00"/>
<circle cx="440.0" cy="164.6" r="5.0" fill="#0D3812"/>
<circle cx="440.0" cy="139.2" r="9.0" fill="#E5C100" stroke="#8A6B00"/>
<circle cx="440.0" cy="139.2" r="5.0" fill="#0D3812"/>
<circle cx="440.0" cy="113.8" r="9.0" fill="#E5C100" stroke="#8A6B00"/>
<circle cx="440.0" cy="113.8" r="5.0" fill="#0D3812"/>
<circle cx="440.0" cy="88.4" r="9.0" fill="#E5C100" stroke="#8A6B00"/>
<circle cx="440.0" cy="88.4" r="5.0" fill="#0D3812"/>
<rect x="169.5" y="97.5" width="15.0" height="25.0" fill="#E5C100" stroke="#8A6B00" stroke-width="0.5" rx="1"/>
<rect x="192.5" y="97.5" width="15.0" height="25.0" fill="#E5C100" stroke="#8A6B00" stroke-width="0.5" rx="1"/>
<rect x="215.5" y="97.5" width="15.0" height="25.0" fill="#E5C100" stroke="#8A6B00" stroke-width="0.5" rx="1"/>
<rect x="182.5" y="137.5" width="35.0" height="25.0" fill="#E5C100" stroke="#8A6B00" stroke-width="0.5" rx="1"/>
<rect x="135.0" y="124.0" width="10.0" height="12.0" fill="#E5C100" stroke="#8A6B00" stroke-width="0.5" rx="1"/>
<rect x="155.0" y="124.0" width="10.0" height="12.0" fill="#E5C100" stroke="#8A6B00" stroke-width="0.5" rx="1"/>
<rect x="245.0" y="124.0" width="10.0" height="12.0" fill="#E5C100" stroke="#8A6B00" stroke-width="0.5" rx="1"/>
<rect x="265.0" y="124.0" width="10.0" height="12.0" fill="#E5C100" stroke="#8A6B00" stroke-width="0.5" rx="1"/>
<circle cx="485.0" cy="50.0" r="11.0" fill="#0D3812" stroke="#0D3812"/>
<text x="270.0" y="31.6" fill="white" font-size="12.0" font-weight="700" text-anchor="middle" font-family="monospace">CARDPUTER LORA CARRIER</text>
<text x="80.0" y="158.2" fill="white" font-size="10.5" font-weight="700" text-anchor="middle" font-family="monospace">J1 GROVE</text>
<text x="50.0" y="115.7" fill="white" font-size="9.0" font-weight="700" text-anchor="middle" font-family="monospace">5V</text>
<text x="70.0" y="115.7" fill="white" font-size="9.0" font-weight="700" text-anchor="middle" font-family="monospace">GND</text>
<text x="90.0" y="115.7" fill="white" font-size="9.0" font-weight="700" text-anchor="middle" font-family="monospace">RX</text>
<text x="110.0" y="115.7" fill="white" font-size="9.0" font-weight="700" text-anchor="middle" font-family="monospace">TX</text>
<text x="180.0" y="133.2" fill="white" font-size="10.5" font-weight="700" text-anchor="middle" font-family="monospace">U1</text>
<text x="150.0" y="115.7" fill="white" font-size="9.0" font-weight="700" text-anchor="middle" font-family="monospace">C1</text>
<text x="260.0" y="115.7" fill="white" font-size="9.0" font-weight="700" text-anchor="middle" font-family="monospace">C2</text>
<text x="370.0" y="223.2" fill="white" font-size="10.5" font-weight="700" text-anchor="middle" font-family="monospace">RYLR998 →</text>
<text x="455.0" y="192.7" fill="white" font-size="9.0" font-weight="700" text-anchor="middle" font-family="monospace">GND</text>
<text x="455.0" y="167.3" fill="white" font-size="9.0" font-weight="700" text-anchor="middle" font-family="monospace">TX</text>
<text x="455.0" y="141.9" fill="white" font-size="9.0" font-weight="700" text-anchor="middle" font-family="monospace">RX</text>
<text x="455.0" y="116.5" fill="white" font-size="9.0" font-weight="700" text-anchor="middle" font-family="monospace">RST</text>
<text x="455.0" y="91.1" fill="white" font-size="9.0" font-weight="700" text-anchor="middle" font-family="monospace">VDD</text>
<rect x="170.0" y="115.0" width="60.0" height="30.0" fill="none" stroke="white" stroke-width="1" opacity="0.6"/>
<rect x="140.0" y="124.0" width="20.0" height="12.0" fill="none" stroke="white" stroke-width="1" opacity="0.6"/>
<rect x="250.0" y="124.0" width="20.0" height="12.0" fill="none" stroke="white" stroke-width="1" opacity="0.6"/>
<text x="270.0" y="258.0" fill="#222" font-size="12" text-anchor="middle">50.0 × 22.0 mm</text>
</svg>