G04 Cardputer LoRa Carrier Board*
%TF.GenerationSoftware,cardputer-lora-chat,2.0*%
%TF.FileFunction,Legend,Top*%
%TF.FilePolarity,Positive*%
%FSLAX46Y46*%
%MOMM*%
%LPD*%
%ADD10C,0.1500*%
D10*
X17944000Y21350000D02*
X17454000Y21350000D01*
X17454000Y20650000D01*
X17944000Y20650000D01*
D10*
X18140000Y20650000D02*
X18140000Y21210000D01*
X18303333Y21350000D01*
X18466667Y21350000D01*
X18630000Y21210000D01*
X18630000Y20650000D01*
D10*
X18140000Y20930000D02*
X18630000Y20930000D01*
D10*
X18826000Y20650000D02*
X18826000Y21350000D01*
X19152667Y21350000D01*
X19316000Y21210000D01*
X19316000Y21070000D01*
X19152667Y21000000D01*
X18826000Y21000000D01*
D10*
X19071000Y21000000D02*
X19316000Y20650000D01*
D10*
X19512000Y20650000D02*
X19512000Y21350000D01*
X19838667Y21350000D01*
X20002000Y21210000D01*
X20002000Y20790000D01*
X19838667Y20650000D01*
X19512000Y20650000D01*
D10*
X20198000Y20650000D02*
X20198000Y21350000D01*
X20524667Y21350000D01*
X20688000Y21210000D01*
X20688000Y21070000D01*
X20524667Y21000000D01*
X20198000Y21000000D01*
D10*
X20884000Y21350000D02*
X20884000Y20790000D01*
X21047333Y20650000D01*
X21210667Y20650000D01*
X21374000Y20790000D01*
X21374000Y21350000D01*
D10*
X21570000Y21350000D02*
X22060000Y21350000D01*
D10*
X21815000Y21350000D02*
X21815000Y20650000D01*
D10*
X22746000Y21350000D02*
X22256000Y21350000D01*
X22256000Y20650000D01*
X22746000Y20650000D01*
D10*
X22256000Y21000000D02*
X22582667Y21000000D01*
D10*
X22942000Y20650000D02*
X22942000Y21350000D01*
X23268667Y21350000D01*
X23432000Y21210000D01*
X23432000Y21070000D01*
X23268667Y21000000D01*
X22942000Y21000000D01*
D10*
X23187000Y21000000D02*
X23432000Y20650000D01*
D10*
X24314000Y21350000D02*
X24314000Y20650000D01*
X24804000Y20650000D01*
D10*
X25000000Y20650000D02*
X25000000Y21350000D01*
X25490000Y21350000D01*
X25490000Y20650000D01*
X25000000Y20650000D01*
D10*
X25686000Y20650000D02*
X25686000Y21350000D01*
X26012667Y21350000D01*
X26176000Y21210000D01*
X26176000Y21070000D01*
X26012667Y21000000D01*
X25686000Y21000000D01*
D10*
X25931000Y21000000D02*
X26176000Y20650000D01*
D10*
X26372000Y20650000D02*
X26372000Y21210000D01*
X26535333Y21350000D01*
X26698667Y21350000D01*
X26862000Y21210000D01*
X26862000Y20650000D01*
D10*
X26372000Y20930000D02*
X26862000Y20930000D01*
D10*
X28234000Y21350000D02*
X27744000Y21350000D01*
X27744000Y20650000D01*
X28234000Y20650000D01*
D10*
X28430000Y20650000D02*
X28430000Y21210000D01*
X28593333Y21350000D01*
X28756667Y21350000D01*
X28920000Y21210000D01*
X28920000Y20650000D01*
D10*
X28430000Y20930000D02*
X28920000Y20930000D01*
D10*
X29116000Y20650000D02*
X29116000Y21350000D01*
X29442667Y21350000D01*
X29606000Y21210000D01*
X29606000Y21070000D01*
X29442667Y21000000D01*
X29116000Y21000000D01*
D10*
X29361000Y21000000D02*
X29606000Y20650000D01*
D10*
X29802000Y20650000D02*
X29802000Y21350000D01*
X30128667Y21350000D01*
X30292000Y21210000D01*
X30292000Y21070000D01*
X30128667Y21000000D01*
X29802000Y21000000D01*
D10*
X30047000Y21000000D02*
X30292000Y20650000D01*
D10*
X30488000Y21350000D02*
X30978000Y21350000D01*
D10*
X30733000Y21350000D02*
X30733000Y20650000D01*
D10*
X30488000Y20650000D02*
X30978000Y20650000D01*
D10*
X31664000Y21350000D02*
X31174000Y21350000D01*
X31174000Y20650000D01*
X31664000Y20650000D01*
D10*
X31174000Y21000000D02*
X31500667Y21000000D01*
D10*
X31860000Y20650000D02*
X31860000Y21350000D01*
X32186667Y21350000D01*
X32350000Y21210000D01*
X32350000Y21070000D01*
X32186667Y21000000D01*
X31860000Y21000000D01*
D10*
X32105000Y21000000D02*
X32350000Y20650000D01*
D10*
X2860000Y12950000D02*
X2510000Y12950000D01*
X2510000Y12750000D01*
X2743333Y12750000D01*
X2860000Y12650000D01*
X2860000Y12550000D01*
X2743333Y12450000D01*
X2510000Y12450000D01*
D10*
X3000000Y12950000D02*
X3175000Y12450000D01*
X3350000Y12950000D01*
D10*
X4615000Y12950000D02*
X4265000Y12950000D01*
X4265000Y12450000D01*
X4615000Y12450000D01*
X4615000Y12700000D01*
X4498333Y12700000D01*
D10*
X4755000Y12450000D02*
X4755000Y12950000D01*
X5105000Y12450000D01*
X5105000Y12950000D01*
D10*
X5245000Y12450000D02*
X5245000Y12950000D01*
X5478333Y12950000D01*
X5595000Y12850000D01*
X5595000Y12550000D01*
X5478333Y12450000D01*
X5245000Y12450000D01*
D10*
X6510000Y12450000D02*
X6510000Y12950000D01*
X6743333Y12950000D01*
X6860000Y12850000D01*
X6860000Y12750000D01*
X6743333Y12700000D01*
X6510000Y12700000D01*
D10*
X6685000Y12700000D02*
X6860000Y12450000D01*
D10*
X7000000Y12450000D02*
X7350000Y12950000D01*
D10*
X7000000Y12950000D02*
X7350000Y12450000D01*
D10*
X8510000Y12950000D02*
X8860000Y12950000D01*
D10*
X8685000Y12950000D02*
X8685000Y12450000D01*
D10*
X9000000Y12450000D02*
X9350000Y12950000D01*
D10*
X9000000Y12950000D02*
X9350000Y12450000D01*
D10*
X5860000Y14050000D02*
X5860000Y13650000D01*
X5743333Y13550000D01*
X5626667Y13550000D01*
X5510000Y13650000D01*
D10*
X6058333Y13950000D02*
X6175000Y14050000D01*
X6175000Y13550000D01*
D10*
X6000000Y13550000D02*
X6350000Y13550000D01*
D10*
X14265000Y12950000D02*
X14440000Y12450000D01*
X14615000Y12950000D01*
D10*
X14755000Y12950000D02*
X15105000Y12950000D01*
D10*
X14930000Y12950000D02*
X14930000Y12450000D01*
D10*
X14755000Y12450000D02*
X15105000Y12450000D01*
D10*
X15245000Y12450000D02*
X15245000Y12950000D01*
X15595000Y12450000D01*
X15595000Y12950000D01*
D10*
X17155000Y12950000D02*
X16805000Y12950000D01*
X16805000Y12450000D01*
X17155000Y12450000D01*
X17155000Y12700000D01*
X17038333Y12700000D01*
D10*
X17295000Y12450000D02*
X17295000Y12950000D01*
X17645000Y12450000D01*
X17645000Y12950000D01*
D10*
X17785000Y12450000D02*
X17785000Y12950000D01*
X18018333Y12950000D01*
X18135000Y12850000D01*
X18135000Y12550000D01*
X18018333Y12450000D01*
X17785000Y12450000D01*
D10*
X19100000Y12950000D02*
X19275000Y12450000D01*
X19450000Y12950000D01*
D10*
X19590000Y12450000D02*
X19590000Y12950000D01*
X19940000Y12950000D01*
X19940000Y12450000D01*
X19590000Y12450000D01*
D10*
X20080000Y12950000D02*
X20080000Y12550000D01*
X20196667Y12450000D01*
X20313333Y12450000D01*
X20430000Y12550000D01*
X20430000Y12950000D01*
D10*
X20570000Y12950000D02*
X20920000Y12950000D01*
D10*
X20745000Y12950000D02*
X20745000Y12450000D01*
D10*
X15090000Y14150000D02*
X15090000Y13750000D01*
X15206667Y13650000D01*
X15323333Y13650000D01*
X15440000Y13750000D01*
X15440000Y14150000D01*
D10*
X15638333Y14050000D02*
X15755000Y14150000D01*
X15755000Y13650000D01*
D10*
X15580000Y13650000D02*
X15930000Y13650000D01*
D10*
X16560000Y13650000D02*
X16560000Y14050000D01*
X16676667Y14150000D01*
X16793333Y14150000D01*
X16910000Y14050000D01*
X16910000Y13650000D01*
D10*
X16560000Y13850000D02*
X16910000Y13850000D01*
D10*
X17050000Y13650000D02*
X17050000Y14150000D01*
X17225000Y13950000D01*
X17400000Y14150000D01*
X17400000Y13650000D01*
D10*
X17890000Y14150000D02*
X17540000Y14150000D01*
X17540000Y13950000D01*
X17890000Y13850000D01*
X17890000Y13650000D01*
X17540000Y13650000D01*
D10*
X18088333Y14050000D02*
X18205000Y14150000D01*
X18205000Y13650000D01*
D10*
X18030000Y13650000D02*
X18380000Y13650000D01*
D10*
X18578333Y14050000D02*
X18695000Y14150000D01*
X18695000Y13650000D01*
D10*
X18520000Y13650000D02*
X18870000Y13650000D01*
D10*
X19068333Y14050000D02*
X19185000Y14150000D01*
X19185000Y13650000D01*
D10*
X19010000Y13650000D02*
X19360000Y13650000D01*
D10*
X19500000Y14150000D02*
X19850000Y14150000D01*
X19616667Y13650000D01*
D10*
X43215000Y5250000D02*
X42865000Y5250000D01*
X42865000Y4750000D01*
X43215000Y4750000D01*
X43215000Y5000000D01*
X43098333Y5000000D01*
D10*
X43355000Y4750000D02*
X43355000Y5250000D01*
X43705000Y4750000D01*
X43705000Y5250000D01*
D10*
X43845000Y4750000D02*
X43845000Y5250000D01*
X44078333Y5250000D01*
X44195000Y5150000D01*
X44195000Y4850000D01*
X44078333Y4750000D01*
X43845000Y4750000D01*
D10*
X43110000Y7790000D02*
X43460000Y7790000D01*
D10*
X43285000Y7790000D02*
X43285000Y7290000D01*
D10*
X43600000Y7290000D02*
X43950000Y7790000D01*
D10*
X43600000Y7790000D02*
X43950000Y7290000D01*
D10*
X43110000Y9830000D02*
X43110000Y10330000D01*
X43343333Y10330000D01*
X43460000Y10230000D01*
X43460000Y10130000D01*
X43343333Y10080000D01*
X43110000Y10080000D01*
D10*
X43285000Y10080000D02*
X43460000Y9830000D01*
D10*
X43600000Y9830000D02*
X43950000Y10330000D01*
D10*
X43600000Y10330000D02*
X43950000Y9830000D01*
D10*
X42865000Y12370000D02*
X42865000Y12870000D01*
X43098333Y12870000D01*
X43215000Y12770000D01*
X43215000Y12670000D01*
X43098333Y12620000D01*
X42865000Y12620000D01*
D10*
X43040000Y12620000D02*
X43215000Y12370000D01*
D10*
X43705000Y12870000D02*
X43355000Y12870000D01*
X43355000Y12670000D01*
X43705000Y12570000D01*
X43705000Y12370000D01*
X43355000Y12370000D01*
D10*
X43845000Y12870000D02*
X44195000Y12870000D01*
D10*
X44020000Y12870000D02*
X44020000Y12370000D01*
D10*
X42865000Y15410000D02*
X43040000Y14910000D01*
X43215000Y15410000D01*
D10*
X43355000Y14910000D02*
X43355000Y15410000D01*
X43588333Y15410000D01*
X43705000Y15310000D01*
X43705000Y15010000D01*
X43588333Y14910000D01*
X43355000Y14910000D01*
D10*
X43845000Y14910000D02*
X43845000Y15410000D01*
X44078333Y15410000D01*
X44195000Y15310000D01*
X44195000Y15010000D01*
X44078333Y14910000D01*
X43845000Y14910000D01*
D10*
X35410000Y17250000D02*
X35410000Y16850000D01*
X35293333Y16750000D01*
X35176667Y16750000D01*
X35060000Y16850000D01*
D10*
X35550000Y17150000D02*
X35666667Y17250000D01*
X35783333Y17250000D01*
X35900000Y17150000D01*
X35900000Y17050000D01*
X35550000Y16850000D01*
X35550000Y16750000D01*
X35900000Y16750000D01*
D10*
X36530000Y17000000D02*
X36880000Y17000000D01*
D10*
X37510000Y16750000D02*
X37510000Y17250000D01*
X37743333Y17250000D01*
X37860000Y17150000D01*
X37860000Y17050000D01*
X37743333Y17000000D01*
X37510000Y17000000D01*
D10*
X37685000Y17000000D02*
X37860000Y16750000D01*
D10*
X38000000Y17250000D02*
X38175000Y17000000D01*
D10*
X38350000Y17250000D02*
X38175000Y17000000D01*
X38175000Y16750000D01*
D10*
X38490000Y17250000D02*
X38490000Y16750000D01*
X38840000Y16750000D01*
D10*
X38980000Y16750000D02*
X38980000Y17250000D01*
X39213333Y17250000D01*
X39330000Y17150000D01*
X39330000Y17050000D01*
X39213333Y17000000D01*
X38980000Y17000000D01*
D10*
X39155000Y17000000D02*
X39330000Y16750000D01*
D10*
X39820000Y17000000D02*
X39820000Y17150000D01*
X39703333Y17250000D01*
X39586667Y17250000D01*
X39470000Y17150000D01*
X39470000Y17050000D01*
X39586667Y17000000D01*
X39820000Y17000000D01*
X39820000Y16850000D01*
X39703333Y16750000D01*
X39470000Y16750000D01*
D10*
X40310000Y17000000D02*
X40310000Y17150000D01*
X40193333Y17250000D01*
X40076667Y17250000D01*
X39960000Y17150000D01*
X39960000Y17050000D01*
X40076667Y17000000D01*
X40310000Y17000000D01*
X40310000Y16850000D01*
X40193333Y16750000D01*
X39960000Y16750000D01*
D10*
X40566667Y17000000D02*
X40450000Y17050000D01*
X40450000Y17150000D01*
X40566667Y17250000D01*
X40683333Y17250000D01*
X40800000Y17150000D01*
X40800000Y17050000D01*
X40683333Y17000000D01*
X40566667Y17000000D01*
X40450000Y16950000D01*
X40450000Y16850000D01*
X40566667Y16750000D01*
X40683333Y16750000D01*
X40800000Y16850000D01*
X40800000Y16950000D01*
X40683333Y17000000D01*
D10*
X11500000Y4000000D02*
X23500000Y4000000D01*
X23500000Y10000000D01*
X11500000Y10000000D01*
X11500000Y4000000D01*
M02*
